<?xml version="1.0"?>
<svg xmlns="http://www.w3.org/2000/svg" xmlns:xlink="http://www.w3.org/1999/xlink" xmlns:svgjs="http://svgjs.com/svgjs" version="1.1" width="512" height="512" x="0" y="0" viewBox="0 0 512 512" style="enable-background:new 0 0 512 512" xml:space="preserve"><g><g xmlns="http://www.w3.org/2000/svg"><g><path d="m496 447h-15v-110h15c8.284 0 15 6.716 15 15v80c0 8.284-6.716 15-15 15z" fill="#ffffff" data-original="#000000" style=""/><g><path d="m406 272h-360c-24.813 0-45 20.187-45 45v150c0 24.813 20.187 45 45 45h360c24.813 0 45-20.187 45-45v-150c0-24.813-20.187-45-45-45zm0 180c0 8.284-6.716 15-15 15h-330c-8.284 0-15-6.716-15-15v-120c0-8.284 6.716-15 15-15h330c8.284 0 15 6.716 15 15z" fill="#ffffff" data-original="#000000" style=""/><path d="m142 347h36v90h-36z" fill="#ffffff" data-original="#000000" style=""/><path d="m76 347h36v90h-36z" fill="#ffffff" data-original="#000000" style=""/><path d="m274 347h36v90h-36z" fill="#ffffff" data-original="#000000" style=""/><path d="m208 347h36v90h-36z" fill="#ffffff" data-original="#000000" style=""/><path d="m340 347h36v90h-36z" fill="#ffffff" data-original="#000000" style=""/></g></g><path d="m496 175h-15v-110h15c8.284 0 15 6.716 15 15v80c0 8.284-6.716 15-15 15z" fill="#ffffff" data-original="#000000" style=""/><path d="m406 0h-360c-24.813 0-45 20.187-45 45v150c0 24.813 20.187 45 45 45h360c24.813 0 45-20.187 45-45v-150c0-24.813-20.187-45-45-45zm-51.031 125.466c-3.02 7.715-11.721 11.52-19.435 8.503l-94.534-36.991v68.022c0 4.957-2.449 9.595-6.544 12.39-2.528 1.725-5.481 2.61-8.457 2.61-1.845 0-3.698-.34-5.465-1.031l-115-45c-7.715-3.019-11.521-11.72-8.503-19.435 3.019-7.716 11.719-11.521 19.435-8.503l94.534 36.991v-68.022c0-4.957 2.449-9.595 6.544-12.39 4.096-2.794 9.307-3.386 13.922-1.579l115 45c7.715 3.019 11.521 11.72 8.503 19.435z" fill="#ffffff" data-original="#000000" style=""/></g></g></svg>
