<?xml version="1.0"?>
<svg xmlns="http://www.w3.org/2000/svg" xmlns:xlink="http://www.w3.org/1999/xlink" xmlns:svgjs="http://svgjs.com/svgjs" version="1.1" width="512" height="512" x="0" y="0" viewBox="0 0 512 512" style="enable-background:new 0 0 512 512" xml:space="preserve"><g><g xmlns="http://www.w3.org/2000/svg"><g><g><circle cx="161.75" cy="73.755" r="7.5" fill="#ffffff" data-original="#000000" style=""/><circle cx="196" cy="73.755" r="7.5" fill="#ffffff" data-original="#000000" style=""/><circle cx="230.25" cy="73.755" r="7.5" fill="#ffffff" data-original="#000000" style=""/><path d="m272.5 457.5h-33c-4.142 0-7.5 3.358-7.5 7.5s3.358 7.5 7.5 7.5h33c4.142 0 7.5-3.358 7.5-7.5s-3.358-7.5-7.5-7.5z" fill="#ffffff" data-original="#000000" style=""/><path d="m402.037 0h-292.074c-21.152 0-38.36 17.209-38.36 38.361v435.277c0 21.152 17.208 38.361 38.361 38.361h292.073c21.152 0 38.361-17.209 38.361-38.361v-435.277c-.001-21.152-17.209-38.361-38.361-38.361zm23.36 473.639c0 12.881-10.479 23.361-23.361 23.361h-292.073c-12.881 0-23.361-10.48-23.361-23.361v-435.278c.001-12.881 10.48-23.361 23.361-23.361h292.073c12.881 0 23.361 10.48 23.361 23.361z" fill="#ffffff" data-original="#000000" style=""/><path d="m391.887 383.666c-4.142 0-7.5 3.358-7.5 7.5v24.033c0 3.769-3.066 6.835-6.835 6.835h-114.052v-49.742c12.215-.092 22.125-10.054 22.125-22.291v-7.06c17.236-5.356 29.787-21.453 29.787-40.428v-39.418c7.27-2.174 12.588-8.916 12.588-16.884v-6.279c0-9.72-7.907-17.627-17.627-17.627h-15.873v-49.667c0-4.142-3.358-7.5-7.5-7.5s-7.5 3.358-7.5 7.5v49.667h-47v-49.667c0-4.142-3.358-7.5-7.5-7.5s-7.5 3.358-7.5 7.5v49.667h-15.873c-9.72 0-17.627 7.907-17.627 17.627v6.279c0 7.968 5.318 14.71 12.588 16.884v39.418c0 18.974 12.551 35.072 29.787 40.428v7.06c0 12.237 9.91 22.199 22.125 22.291v49.742h-114.052c-3.769 0-6.835-3.066-6.835-6.835v-242.728c0-4.142-3.358-7.5-7.5-7.5s-7.5 3.358-7.5 7.5v242.728c0 12.04 9.795 21.835 21.835 21.835h243.104c12.04 0 21.835-9.795 21.835-21.835v-24.033c0-4.142-3.358-7.5-7.5-7.5zm-190.26-134.828c-1.449 0-2.627-1.179-2.627-2.627v-6.279c0-1.449 1.178-2.627 2.627-2.627h108.746c1.449 0 2.627 1.178 2.627 2.627v6.279c0 1.449-1.178 2.627-2.627 2.627zm9.961 53.675v-38.675h88.824v38.675c0 15.066-12.257 27.324-27.324 27.324h-34.177c-15.066-.001-27.323-12.258-27.323-27.324zm37.082 54.783c-4.022 0-7.295-3.273-7.295-7.295v-5.165h29.25v5.165c0 4.022-3.273 7.295-7.295 7.295z" fill="#ffffff" data-original="#000000" style=""/><path d="m377.552 41.01h-243.104c-12.04 0-21.835 9.795-21.835 21.835v74.562c0 4.142 3.358 7.5 7.5 7.5s7.5-3.358 7.5-7.5v-30.907h256.774v249.667c0 4.142 3.358 7.5 7.5 7.5s7.5-3.358 7.5-7.5v-293.321c0-12.04-9.795-21.836-21.835-21.836zm6.835 50.49h-256.774v-28.654c0-3.769 3.066-6.835 6.835-6.835h243.104c3.769 0 6.835 3.066 6.835 6.835z" fill="#ffffff" data-original="#000000" style=""/></g></g><g><path d="m254.204 322.974c-1.358 0-2.732-.369-3.969-1.142-3.512-2.196-4.579-6.823-2.382-10.335l4.323-6.913h-2.843c-3.339 0-6.418-1.814-8.036-4.735s-1.523-6.493.248-9.324l9.552-15.275c2.196-3.511 6.821-4.579 10.335-2.382 3.512 2.196 4.579 6.823 2.382 10.335l-3.99 6.38h2.844c3.339 0 6.418 1.814 8.036 4.735 1.618 2.92 1.522 6.493-.249 9.323l-9.885 15.808c-1.423 2.276-3.866 3.525-6.366 3.525z" fill="#ffffff" data-original="#000000" style=""/></g></g></g></svg>
