<?xml version="1.0"?>
<svg xmlns="http://www.w3.org/2000/svg" xmlns:xlink="http://www.w3.org/1999/xlink" xmlns:svgjs="http://svgjs.com/svgjs" version="1.1" width="512" height="512" x="0" y="0" viewBox="0 0 512 512" style="enable-background:new 0 0 512 512" xml:space="preserve" class=""><g><path xmlns="http://www.w3.org/2000/svg" d="M64,496h80a40.045,40.045,0,0,0,40-40V440a23.9,23.9,0,0,0-6.131-16,23.943,23.943,0,0,0,0-32,23.943,23.943,0,0,0,0-32,23.943,23.943,0,0,0,0-32A23.9,23.9,0,0,0,184,312V151.494a23.937,23.937,0,0,0-8.635-18.437L136,100.253V80a8,8,0,0,0,8-8V40a24.028,24.028,0,0,0-24-24H88A24.028,24.028,0,0,0,64,40V72a8,8,0,0,0,8,8v20.253l-39.365,32.8A23.937,23.937,0,0,0,24,151.494V312a23.9,23.9,0,0,0,6.131,16,23.943,23.943,0,0,0,0,32,23.943,23.943,0,0,0,0,32,23.943,23.943,0,0,0,0,32A23.9,23.9,0,0,0,24,440v16A40.045,40.045,0,0,0,64,496Zm104-40a24.027,24.027,0,0,1-24,24H64a24.027,24.027,0,0,1-24-24V440a8.009,8.009,0,0,1,8-8H160a8.009,8.009,0,0,1,8,8ZM40,408a8.009,8.009,0,0,1,8-8H160a8,8,0,0,1,0,16H48A8.009,8.009,0,0,1,40,408Zm0-32a8.009,8.009,0,0,1,8-8H160a8,8,0,0,1,0,16H48A8.009,8.009,0,0,1,40,376Zm0-32a8.009,8.009,0,0,1,8-8H160a8,8,0,0,1,0,16H48A8.009,8.009,0,0,1,40,344Zm0-32v-8H168v8a8.009,8.009,0,0,1-8,8H48A8.009,8.009,0,0,1,40,312Zm128-24H40V176H168ZM80,40a8.009,8.009,0,0,1,8-8h32a8.009,8.009,0,0,1,8,8V64H80Zm40,40V96H88V80ZM42.878,145.348,82.9,112H125.1l40.017,33.348A7.976,7.976,0,0,1,168,151.494V160H40v-8.506A7.978,7.978,0,0,1,42.878,145.348Z" fill="#ffffff" data-original="#000000" style="" class=""/><path xmlns="http://www.w3.org/2000/svg" d="M80.877,263.479A31.567,31.567,0,0,0,104,271.98q.6.019,1.192.02a31.323,31.323,0,0,0,21.931-8.521A28.57,28.57,0,0,0,136,242.667c0-6.812-3.045-12.134-5.269-16.02a102.943,102.943,0,0,0-7.22-10.475,91.625,91.625,0,0,1-6.7-9.714l-5.839-10.38a8,8,0,0,0-13.946,0l-5.839,10.38a91.625,91.625,0,0,1-6.7,9.714,102.943,102.943,0,0,0-7.22,10.475C75.045,230.533,72,235.855,72,242.667A28.57,28.57,0,0,0,80.877,263.479Zm10.279-28.886a90.128,90.128,0,0,1,6.122-8.806c2.294-3.051,4.653-6.188,6.722-9.558,2.069,3.37,4.428,6.507,6.722,9.558a90.128,90.128,0,0,1,6.122,8.806c1.788,3.126,3.156,5.7,3.156,8.074a12.712,12.712,0,0,1-3.947,9.26,15.643,15.643,0,0,1-11.711,4.054q-.171-.006-.342-.006t-.342.006a15.64,15.64,0,0,1-11.711-4.054A12.712,12.712,0,0,1,88,242.667C88,240.3,89.368,237.719,91.156,234.593Z" fill="#ffffff" data-original="#000000" style="" class=""/><path xmlns="http://www.w3.org/2000/svg" d="M475.907,145.054c-.2-.115-.4-.22-.614-.317L376,98.883V80a8,8,0,0,0,8-8V40a24.028,24.028,0,0,0-24-24H328a24.028,24.028,0,0,0-24,24V72a8,8,0,0,0,8,8V98.883l-99.292,45.854c-.209.1-.415.2-.615.317A24.052,24.052,0,0,0,200,165.892V216a23.9,23.9,0,0,0,6.131,16,23.943,23.943,0,0,0,0,32,23.943,23.943,0,0,0,0,32,23.943,23.943,0,0,0,0,32,23.943,23.943,0,0,0,0,32,23.943,23.943,0,0,0,0,32,23.943,23.943,0,0,0,0,32A23.9,23.9,0,0,0,200,440v16a40.045,40.045,0,0,0,40,40H448a40.045,40.045,0,0,0,40-40V440a23.9,23.9,0,0,0-6.131-16,23.943,23.943,0,0,0,0-32,23.943,23.943,0,0,0,0-32,23.943,23.943,0,0,0,0-32,23.943,23.943,0,0,0,0-32,23.943,23.943,0,0,0,0-32,23.943,23.943,0,0,0,0-32A23.9,23.9,0,0,0,488,216V165.892A24.052,24.052,0,0,0,475.907,145.054ZM320,40a8.009,8.009,0,0,1,8-8h32a8.009,8.009,0,0,1,8,8V64H320Zm40,40V96H328V80Zm-38.242,32h44.484l101.974,47.093a7.922,7.922,0,0,1,1.171.907H416a8,8,0,0,0,0,16h56v40a8.009,8.009,0,0,1-8,8H224a8.009,8.009,0,0,1-8-8V176H384a8,8,0,0,0,0-16H218.614a7.87,7.87,0,0,1,1.171-.907ZM472,248a8.009,8.009,0,0,1-8,8h-8V240h8A8.009,8.009,0,0,1,472,248Zm0,32a8.009,8.009,0,0,1-8,8h-8V272h8A8.009,8.009,0,0,1,472,280Zm0,32a8.009,8.009,0,0,1-8,8h-8V304h8A8.009,8.009,0,0,1,472,312Zm0,32a8.009,8.009,0,0,1-8,8h-8V336h8A8.009,8.009,0,0,1,472,344Zm0,32a8.009,8.009,0,0,1-8,8H224a8,8,0,0,1,0-16H464A8.009,8.009,0,0,1,472,376Zm0,32a8.009,8.009,0,0,1-8,8H224a8,8,0,0,1,0-16H464A8.009,8.009,0,0,1,472,408ZM216,344a8.009,8.009,0,0,1,8-8h8v16h-8A8.009,8.009,0,0,1,216,344Zm0-32a8.009,8.009,0,0,1,8-8h8v16h-8A8.009,8.009,0,0,1,216,312Zm0-32a8.009,8.009,0,0,1,8-8h8v16h-8A8.009,8.009,0,0,1,216,280Zm0-32a8.009,8.009,0,0,1,8-8h8v16h-8A8.009,8.009,0,0,1,216,248ZM440,352H248V240H440Zm32,104a24.028,24.028,0,0,1-24,24H240a24.028,24.028,0,0,1-24-24V440a8.009,8.009,0,0,1,8-8H464a8.009,8.009,0,0,1,8,8Z" fill="#ffffff" data-original="#000000" style="" class=""/><path xmlns="http://www.w3.org/2000/svg" d="M320.877,327.479A31.493,31.493,0,0,0,344,335.98q.6.019,1.192.02a31.325,31.325,0,0,0,21.931-8.521A28.566,28.566,0,0,0,376,306.667c0-6.813-3.046-12.135-5.269-16.02a103.09,103.09,0,0,0-7.221-10.477,91.547,91.547,0,0,1-6.7-9.712l-5.839-10.38a8,8,0,0,0-13.946,0l-5.839,10.38a91.547,91.547,0,0,1-6.7,9.712,103.017,103.017,0,0,0-7.22,10.476c-2.224,3.886-5.27,9.208-5.27,16.021A28.566,28.566,0,0,0,320.877,327.479Zm10.28-28.886a90.019,90.019,0,0,1,6.122-8.808c2.293-3.05,4.652-6.187,6.721-9.557,2.069,3.37,4.428,6.507,6.721,9.557a90.1,90.1,0,0,1,6.123,8.809c1.788,3.125,3.156,5.7,3.156,8.073a12.708,12.708,0,0,1-3.947,9.26,15.647,15.647,0,0,1-11.711,4.054q-.171-.006-.342-.006t-.342.006a15.654,15.654,0,0,1-11.711-4.054,12.708,12.708,0,0,1-3.947-9.26C328,304.3,329.368,301.719,331.157,298.593Z" fill="#ffffff" data-original="#000000" style="" class=""/></g></svg>
