<?xml version="1.0"?>
<svg xmlns="http://www.w3.org/2000/svg" xmlns:xlink="http://www.w3.org/1999/xlink" xmlns:svgjs="http://svgjs.com/svgjs" version="1.1" width="512" height="512" x="0" y="0" viewBox="0 0 511.952 511.952" style="enable-background:new 0 0 512 512" xml:space="preserve"><g><g xmlns="http://www.w3.org/2000/svg"><path d="m273.221 70.496c-3.938 3.871-3.993 10.203-.121 14.142 1.958 1.991 4.544 2.989 7.132 2.989 2.531 0 5.063-.955 7.01-2.869l.029-.028c3.938-3.871 3.979-10.188.106-14.127-3.871-3.939-10.217-3.978-14.156-.107z" fill="#ffffff" data-original="#000000" style=""/><path d="m496.538 311.882c-17.27-15.209-42.288-19.385-66.483-23.423-2.923-.488-5.836-.975-8.718-1.479-9.505-1.662-17.569-1.529-24.702.463l-11.226-19.26 10.631-6.213c4.768-2.787 6.375-8.911 3.588-13.68-2.788-4.769-8.911-6.374-13.68-3.588l-10.61 6.201-10.571-18.137 33.454-19.537c4.769-2.785 6.377-8.909 3.592-13.679-2.786-4.769-8.91-6.377-13.678-3.593l-33.439 19.528-10.572-18.139 56.28-32.861c4.77-2.785 6.378-8.908 3.594-13.678s-8.91-6.379-13.678-3.594l-56.267 32.853-10.566-18.128 33.405-19.497c4.77-2.784 6.379-8.907 3.596-13.678-2.785-4.77-8.909-6.378-13.678-3.596l-33.394 19.491-10.686-18.335c19.765-13.253 35.825-30.373 40.529-46.893.745-2.617.392-5.424-.978-7.774-20.363-34.939-55.087-58.071-95.274-63.466-18.456-2.459-30.267 4.416-37.184 21.656-15.087 37.662-12.028 79.315 8.391 114.277 1.373 2.351 3.645 4.04 6.291 4.679 3.688.889 7.672 1.31 11.874 1.31 14.88 0 32.465-5.28 49.089-13.689l10.676 18.317-33.576 19.597c-4.77 2.784-6.379 8.908-3.596 13.678 1.859 3.185 5.207 4.961 8.646 4.961 1.712 0 3.447-.44 5.032-1.365l33.565-19.591 10.567 18.131-56.399 32.93c-4.77 2.785-6.378 8.908-3.594 13.678 1.859 3.185 5.206 4.96 8.645 4.96 1.712 0 3.448-.44 5.033-1.366l56.386-32.922 10.573 18.141-33.533 19.583c-4.769 2.785-6.377 8.909-3.592 13.679 1.859 3.184 5.206 4.959 8.645 4.959 1.713 0 3.448-.44 5.034-1.366l33.518-19.574 10.574 18.143-10.67 6.236c-4.768 2.787-6.375 8.911-3.588 13.68 1.86 3.182 5.206 4.956 8.643 4.956 1.713 0 3.45-.441 5.037-1.368l10.65-6.224 11.218 19.248c-5.253 5.242-9.332 12.218-12.545 21.341-.99 2.802-2.011 5.62-3.036 8.448-8.34 23.016-16.964 46.815-12.207 69.291 3.389 15.89 13.114 26.897 25.379 28.728.933.139 2.098.249 3.444.249 7.009 0 18.933-2.993 28.64-20.499 12.38-22.259 17.663-30.979 24.073-34.264.333-.171.656-.36.968-.567 5.953-3.949 16.7-4.278 41.636-4.12 23.894.18 31.314-12.573 33.402-18.048 4.421-11.593-.397-25.463-12.578-36.201zm-212.334-197.65c-.024.014-.049.024-.073.038-.043.025-.081.055-.124.081-18.684 10.916-37.96 16.787-50.769 15.654-15.241-28.733-17.049-62.264-4.851-92.715 3.491-8.704 6.627-10.522 15.966-9.275 32.486 4.36 60.755 22.41 78.245 49.775-5.295 11.672-19.8 25.541-38.394 36.442zm206.226 226.722c-1.217 3.19-6.939 5.221-14.59 5.175-28.163-.176-41.29.045-52.349 7.148-11.607 6.166-18.25 17.482-31.938 42.092-3.708 6.688-8.284 10.68-11.649 10.18-2.971-.443-6.982-4.737-8.767-13.104-3.572-16.874 4.063-37.943 11.447-58.32 1.043-2.878 2.082-5.747 3.094-8.608 3.103-8.813 6.616-13.86 11.742-16.868h.001c.002-.001.003-.002.005-.003s.004-.002.006-.004c5.143-2.982 11.263-3.57 20.46-1.96 2.934.513 5.897 1.008 8.871 1.504 21.424 3.576 43.577 7.274 56.554 18.702 6.415 5.656 8.184 11.257 7.113 14.066z" fill="#ffffff" data-original="#000000" style=""/><path d="m137.445 267.735c2.626 0 5.303.242 7.956.721 3.501.629 7.075-.646 9.383-3.354 2.309-2.708 3.004-6.438 1.828-9.795-1.603-4.575-2.416-9.391-2.416-14.312 0-11.939 4.751-23.041 13.378-31.261 2.844-2.71 3.838-6.834 2.542-10.541-6.359-18.184-15.558-27.514-24.453-36.537-11.507-11.673-23.407-23.742-32.93-59.565-1.334-5.017-6.284-8.18-11.398-7.279l-4.812.847-3.92-35.533c10.901-7.21 16.6-20.067 14.216-33.577-1.43-8.122-6.419-15.533-14.05-20.869-7.623-5.33-16.863-7.678-24.698-6.285-8.909 1.562-14.672 5.163-18.599 9.422-5.118-2.624-11.795-4.098-20.6-2.527-7.877 1.38-15.774 6.762-21.126 14.396-5.333 7.609-7.484 16.255-6.058 24.34 2.381 13.532 12.122 23.676 24.814 26.722l8.429 34.754-4.82.849c-5.113.9-8.687 5.562-8.227 10.733.923 10.384 1.068 19.434.443 27.668-.418 5.507 3.708 10.31 9.215 10.728 5.511.418 10.311-3.708 10.728-9.216.514-6.772.575-13.958.181-21.778l53.479-9.415c10.529 34.306 23.735 47.701 35.491 59.626 7.16 7.263 13.03 13.217 17.632 23.563-9.625 11.359-14.856 25.588-14.856 40.734 0 2.285.121 4.556.361 6.807-21.016.965-40.174 12.41-51.066 30.204-1.98-.188-3.977-.281-5.979-.281-11.426 0-22.361 2.981-32.026 8.682-14.258-11.872-22.228-28.224-24.308-49.776-.53-5.497-5.419-9.522-10.914-8.993-5.498.531-9.524 5.417-8.993 10.915 2.888 29.926 15.745 52.928 38.214 68.366 1.709 1.174 3.688 1.758 5.663 1.758 2.147 0 4.292-.69 6.082-2.062 7.592-5.815 16.681-8.89 26.283-8.89 3.159 0 6.283.339 9.283 1.009 4.618 1.028 9.324-1.316 11.28-5.624 7.002-15.414 22.456-25.374 39.368-25.374zm-58.967-221.744c-4.327 1.579-7.016 5.911-6.51 10.49l4.815 43.652-22.115 3.894-10.354-42.688c-1.088-4.484-5.104-7.643-9.718-7.643-6.835 0-12.021-4.373-13.212-11.144-.484-2.742.54-6.252 2.739-9.389 2.616-3.732 6.003-5.792 8.23-6.182 1.375-.245 2.567-.367 3.629-.367 3.798 0 5.925 1.561 8.688 4.624 2.304 2.557 5.762 3.747 9.151 3.154 3.39-.594 6.236-2.889 7.536-6.075 1.996-4.894 3.849-7.118 10.191-8.229 2.183-.391 6.045.383 9.758 2.979 3.153 2.205 5.327 5.176 5.815 7.95 1.19 6.746-2.202 12.623-8.643 14.974z" fill="#ffffff" data-original="#000000" style=""/><path d="m224.222 304.052c-2.459 1.339-4.71 2.493-7.02 3.392.446-17.534 3.064-26.754 18.462-37.738 4.496-3.207 5.541-9.452 2.333-13.948s-9.453-5.541-13.948-2.333c-22.858 16.307-26.32 32.887-26.845 54.102-2.387-.909-4.701-2.093-7.234-3.473-30.475-16.615-50.852-7.151-62.582 3.714-2.063 1.91-3.226 4.602-3.204 7.413.021 2.812 1.226 5.484 3.318 7.363 8.238 7.397 12.962 17.984 12.962 29.046 0 20.181-15.127 36.87-35.187 38.819-5.475.532-9.492 5.386-8.991 10.864 3.024 33.06 18.218 66.131 42.807 93.146 5.58 6.089 12.435 11.126 19.305 14.184 5.018 2.232 9.782 3.352 14.336 3.351 6.77 0 13.073-2.474 19.04-7.436 10.021-8.33 20.63-8.328 30.667-.002 9.982 8.301 20.9 9.638 33.379 4.086 6.899-3.07 13.752-8.116 19.289-14.196 3.828-4.193 7.407-8.516 10.64-12.846 3.028-4.057 2.548-9.736-1.119-13.226-7.802-7.426-12.098-17.459-12.098-28.251 0-20.562 16.038-37.662 36.513-38.933 5.208-.322 9.292-4.595 9.379-9.812.48-28.428-8.149-54.811-24.954-76.295-17.221-22.021-41.813-25.925-69.248-10.991zm28.31 136.03c0 12.989 4.352 25.646 12.153 35.87-1.401 1.671-2.856 3.333-4.357 4.978-3.67 4.031-8.277 7.457-12.64 9.398-5.639 2.51-8.317 2.254-12.469-1.199-17.621-14.614-38.641-14.611-56.233.009-4.14 3.444-6.818 3.699-12.458 1.191-4.354-1.938-8.979-5.372-12.668-9.398-19.398-21.312-32.151-46.755-36.489-72.494 25.165-6.952 43.092-29.831 43.092-56.848 0-12.525-4.003-24.646-11.243-34.643 6.418-2.612 16.422-3.377 31.177 4.668 5.661 3.084 14.216 7.744 26.709 7.744 12.465 0 21.02-4.66 26.678-7.742 24.793-13.493 36.946-3.183 43.93 5.748 12.288 15.71 19.309 34.655 20.534 55.208-26.285 6.051-45.716 29.687-45.716 57.51z" fill="#ffffff" data-original="#000000" style=""/><path d="m18.18 205.209c2.567 0 5.136-.979 7.092-2.936 3.905-3.905 3.905-10.237 0-14.143-3.905-3.904-10.237-3.904-14.143 0l-.028.028c-3.905 3.905-3.891 10.223.014 14.128 1.95 1.951 4.506 2.923 7.065 2.923z" fill="#ffffff" data-original="#000000" style=""/></g></g></svg>
