<?xml version="1.0"?>
<svg xmlns="http://www.w3.org/2000/svg" xmlns:xlink="http://www.w3.org/1999/xlink" xmlns:svgjs="http://svgjs.com/svgjs" version="1.1" width="512" height="512" x="0" y="0" viewBox="0 0 512 512" style="enable-background:new 0 0 512 512" xml:space="preserve"><g>
<g xmlns="http://www.w3.org/2000/svg">
	<g>
		<path d="M405.333,85.333c0-23.531-19.146-42.667-42.667-42.667C362.667,19.135,343.521,0,320,0H160    c-2.833,0-5.542,1.125-7.542,3.125L67.125,88.458c-2,2-3.125,4.708-3.125,7.542v288c0,23.531,19.146,42.667,42.667,42.667    c0,23.531,19.146,42.667,42.667,42.667C149.333,492.865,168.479,512,192,512h213.333C428.854,512,448,492.865,448,469.333V128    C448,104.469,428.854,85.333,405.333,85.333z M149.333,36.417V64c0,11.76-9.563,21.333-21.333,21.333h-27.583L149.333,36.417z     M106.667,405.333c-11.771,0-21.333-9.573-21.333-21.333V106.667H128c23.521,0,42.667-19.135,42.667-42.667V21.333H320    c11.771,0,21.333,9.573,21.333,21.333V384c0,11.76-9.563,21.333-21.333,21.333H106.667z M149.333,448    C137.563,448,128,438.427,128,426.667h192c23.521,0,42.667-19.135,42.667-42.667V64C374.438,64,384,73.573,384,85.333v341.333    c0,11.76-9.563,21.333-21.333,21.333H149.333z M426.667,469.333c0,11.76-9.563,21.333-21.333,21.333H192    c-11.771,0-21.333-9.573-21.333-21.333h192c23.521,0,42.667-19.135,42.667-42.667v-320c11.771,0,21.333,9.573,21.333,21.333    V469.333z" fill="#ffffff" data-original="#000000" style=""/>
	</g>
</g>
<g xmlns="http://www.w3.org/2000/svg">
</g>
<g xmlns="http://www.w3.org/2000/svg">
</g>
<g xmlns="http://www.w3.org/2000/svg">
</g>
<g xmlns="http://www.w3.org/2000/svg">
</g>
<g xmlns="http://www.w3.org/2000/svg">
</g>
<g xmlns="http://www.w3.org/2000/svg">
</g>
<g xmlns="http://www.w3.org/2000/svg">
</g>
<g xmlns="http://www.w3.org/2000/svg">
</g>
<g xmlns="http://www.w3.org/2000/svg">
</g>
<g xmlns="http://www.w3.org/2000/svg">
</g>
<g xmlns="http://www.w3.org/2000/svg">
</g>
<g xmlns="http://www.w3.org/2000/svg">
</g>
<g xmlns="http://www.w3.org/2000/svg">
</g>
<g xmlns="http://www.w3.org/2000/svg">
</g>
<g xmlns="http://www.w3.org/2000/svg">
</g>
</g></svg>
